<svg id="Laag_1" data-name="Laag 1" xmlns="http://www.w3.org/2000/svg" viewBox="0 0 1279.58 1089.68"><defs><style>.cls-1{fill:#f8ab21;stroke:#000;stroke-miterlimit:10;stroke-width:8px;}</style></defs><path d="M551.32,364.4h-.11l.14.4c1.74.13,3.48.25,5.22.35-.08-.23-.17-.47-.25-.71Z" transform="translate(-0.22 -0.2)"/><path d="M1275.4,536c-5.4-47-16.1-81.1-32.2-102.6-4.9-6.5-6.6-9.9-9.7-19.4-10.3-31.6-28.7-60.1-46.2-71.6-4.5-3-8.7-6.3-9.3-7.4s-1-4.5-1-7.7c0-18.7-9.7-46.6-22.8-65.4-12-17.2-32-36.7-48.5-47.4-4-2.6-9.4-6.1-12.1-7.8-4.2-2.8-5.2-4.1-7.1-9.4-3.4-9.4-8-16.4-19-28.7-5.6-6.1-13.3-15.4-17.1-20.6-8.9-12-13.6-17.4-24.8-27.9-32.2-30.3-82.4-55-140.1-69.1a266.3,266.3,0,0,1-32-10C820.7,28.1,794.8,23,761,22.5l-20.5-.3L731,17.7A186.65,186.65,0,0,0,670.9,1C662,.1,642.4-.1,633.5.7A286.43,286.43,0,0,0,601.2,6c-6.9,1.7-7.8,1.7-16.5.2-7.1-1.3-15.5-1.7-36.2-1.7-23.5.1-28.6.4-39.5,2.3a286.41,286.41,0,0,0-42.5,10.7c-9.5,3.2-10.4,3.3-18,2.5-13.1-1.5-44.2-1.2-57.2.5-48.8,6.4-91.1,24.8-127.8,55.6l-8.1,6.7-8-.5c-10.3-.7-19.6.9-30,5.2Q181,102.65,134,153.5c-16.4,17.7-43.1,42.9-52.3,49.2-13.3,9.2-24.1,20.7-34.5,36.8-5.6,8.6-16,30.2-19.7,41a200.19,200.19,0,0,1-10.2,21.6,220.57,220.57,0,0,0-11,23.5c-3.2,8.8-3.6,11.2-4.1,22-.5,13.7.6,18.5,5.9,26.9l3.1,4.8L7.1,388c-7.7,16.2-8.9,32.6-3.8,51,6.2,22,15.9,38.7,38.6,66.1a21.43,21.43,0,0,1,5,11c2.7,13.9,9.8,30.6,18.2,43,25.5,37.5,76.3,65.6,142.3,78.4,7.2,1.4,13.4,2.9,13.7,3.3a35,35,0,0,1,2.3,5.1c2.2,5.8,6.5,11.8,13.6,19.4,5.4,5.9,5.8,6.6,6.9,13.4a64.63,64.63,0,0,0,2.1,9.8c.5,1.4,1,7,1,12.3,0,9,.3,10.3,3.4,16.9,6,12.6,17.6,23.3,40.1,37.3,5.5,3.4,15.9,10.6,23,16,30.5,23,61.3,38.1,94,46.1,21.9,5.3,29.6,6,72.6,6.2,38.7.2,39.7.1,57.4-2.6,9.9-1.5,24.8-4.1,33-5.7s15.9-3,17.1-3c1.5,0,2.6,1.3,4.3,5.4,3.4,8.2,13.9,26.2,20.3,34.6a220.37,220.37,0,0,0,32.2,33.3c7.9,6.4,9.7,8.5,15.9,18.7,22.5,36.9,59.2,104.4,68.1,125.5,9.4,22,14.4,30.3,25,41.3a64.7,64.7,0,0,0,26.3,17.1c7.5,2.5,12,2.6,23.5.5,13.5-2.5,17-6.4,16.9-18.8,0-9.1-2.3-17.3-12.2-45.4-11.8-33.1-13.6-40.2-10.6-40.2a96.46,96.46,0,0,1,9.7,2.1c23.7,5.6,32.7,6.9,49.6,6.9,9.1,0,22.9.7,30.7,1.6,22.8,2.6,42.5,1.5,66.2-3.4,35.1-7.4,50.7-11.9,69.3-20.1,38-16.8,67.7-46.6,73.2-73.6,1-4.7,2.2-7,5.6-10.8,5.9-6.6,9-13.5,11-24.7,1.8-9.7,1.6-12.4-2.3-28.8-.5-2.1-.3-2.2,7.3-2.2,39.9-.2,69.8-8.9,94.5-27.4,41.8-31.5,65.6-91.7,67.6-171.1C1280.3,608.6,1278.1,559.6,1275.4,536ZM608.6,12.2c2.1-.6,7.3-1.5,11.4-2.1s8.6-1.3,10-1.5,12.4-.3,24.5-.1c17.2.3,24.2.8,31.9,2.4,11,2.3,29.6,7.8,31.1,9.2.5.5-.3.9-2.1.9-3.9,0-16,3.4-22.9,6.5-4.1,1.8-8.6,5.3-15.8,12.3-10.3,10-16.5,14.6-21,15.7-2.2.6-2.8,0-5.7-4.9-7.8-13.8-21.2-25.9-36.4-33.2l-8.9-4.2ZM484.5,19.9c3.5-1.4,25.6-5.7,35.5-6.8,17.1-2,42-2.6,42-1.1a1.23,1.23,0,0,1-1.3,1c-.7,0-5.4,2-10.4,4.4-9.3,4.5-12.8,7.4-22.5,18.6l-5.6,6.5-7.9-8.2c-9.2-9.5-13.7-12-24.4-12.9C484.8,20.9,483.2,20.4,484.5,19.9ZM150,147.6c27.5-28.2,50.4-45.4,71.4-53.7,8.2-3.3,7.9-3.2,7.1-2-.3.6-3.9,2.8-8,5.1-17.3,9.5-34.6,24-57.6,48.2-8.4,8.8-16.4,16.4-17.8,17-5.7,2.3-11.1,3.7-11.1,2.8C134,164.5,141.2,156.7,150,147.6ZM9.6,350.5c0-15.2,3.6-25.9,15.9-47.5A130.92,130.92,0,0,0,34,284.5c4.9-14.1,18.1-39.9,25.4-49.5,7.5-10,19.1-21.4,26.9-26.4,3.1-1.9,12.7-10,21.4-18.1s16.9-14.8,18.3-15.1c6.3-1.4,19.8-5.8,23-7.4,1.9-1,10.5-9.1,19-18.1,28.7-30.2,52.1-47.6,74.7-55.4,3.6-1.3,7-2.8,7.5-3.3s2.5-.8,4.3-.5c2.8.4,4-.2,9.6-5.2,27.1-24.3,61.9-42.7,98.4-51.9,19.6-5,35.9-6.9,60-6.8,12.1,0,25,.5,28.7,1,6,.7,7.3.6,14-1.9,9.1-3.4,10.6-3.5,11-.7.3,2.1,1,2.4,8.8,3.1,13.8,1.3,15.7,2.1,23.2,9.9A127.6,127.6,0,0,1,520,53l5.2,8-2.6,3c-1.6,1.9-4.2,8.1-6.7,16.1-2.2,7.1-4.2,12.9-4.3,12.9s-3.7-1.6-7.9-3.5a90.08,90.08,0,0,0-14.2-5c-9.9-2.3-32.8-3.4-73-3.5-19.8-.1-38-.5-40.5-.8l-4.5-.7-.3-7c-.2-5.8.1-7.8,2.1-11.8,2.4-4.7,2.4-4.8.6-7L372,51.5l-2.9,3.2c-3.7,4-5.1,8.8-5.1,17.6v6.8l-10.7-.7c-15.5-.9-28.8,2-49.1,11-13.2,5.7-19,10-30.7,22.3l-11.1,11.6L245,124c-13.9.6-18.6,1.2-22.7,2.8-16.5,6.3-45.6,32.3-64,56.9-6.7,9.1-15.6,24.9-22.3,40.1-2.9,6.4-5.6,12.1-6,12.5s-6.5,1.7-13.6,2.7c-24.9,3.7-39.6,7.7-47.7,13.1-14,9.3-40.4,50.4-44.3,69.1-2,9.4-1.2,20.1,2.2,28.3,1.4,3.3,2.7,6.4,2.9,7s-1.4,2.2-3.5,3.7a36.49,36.49,0,0,0-6.8,6.8c-1.5,2.1-3.2,3.9-3.8,4s-2.2-2.4-3.5-5.3C9.9,361.4,9.6,358.9,9.6,350.5ZM224,608.1c-3.1,26.6-2.4,24.3-7.3,23.5-8.2-1.3-31.4-6.7-41.7-9.8-34.4-10.2-65.5-26.9-85.7-46.1C69.7,557,58.8,537.7,54,513.3c-1.4-7.1-2.2-8.4-11.3-18.9-14.8-17-27.7-40.1-32.3-57.9C8.2,427.8,7.9,425,8.3,415c.5-12.9,2.6-20.1,9-30.1a81.78,81.78,0,0,0,5-9,29.52,29.52,0,0,1,4.7-7.2c4.5-5.2,7.4-5,14.7,1.3a118.44,118.44,0,0,0,14.6,10.1l8.7,5.1-5.4,5.9C49.8,401.6,47,410.7,47,430.8c.1,23.2,3.1,33.2,15.3,51.6a148.91,148.91,0,0,0,20.2,24.2c14.5,14.6,20.6,18.1,38.3,21.8a122.44,122.44,0,0,1,11.9,2.9c.8.8-19.4,10.3-26.2,12.3-7,2-18.4,2.2-26.9.4-6.1-1.2-6.9-.9-8,2.7-.6,2-.1,2.4,5.1,3.9a70.18,70.18,0,0,0,15.8,1.8c11.9.1,17.3-1.5,36.1-10.4,19.3-9.2,18.1-9,27.2-3.6a116.39,116.39,0,0,0,17,8.2c6,2.4,9.6,4.4,10.4,5.8,1.4,2.8,7.8,10.5,15,18.4,5.7,6.2,5.8,6.3,4.1,8.8-3.8,5.9-16.3,12.3-24,12.4-4.8,0-5.3.2-5.9,2.5-.4,1.4-.4,2.9,0,3.2,1.2,1.3,11.5,1.5,14.9.4,5.1-1.7,14.7-8.2,19.5-13.1l4.1-4.3,6.4,3.6a57.15,57.15,0,0,1,7.6,5C225.8,590.4,225.6,594.7,224,608.1Zm3.2-29.3c-1.8.6-18.1-10.1-23.4-15.4-5-4.9-6.8-7.4-5.5-7.4.2,0,4.1,1.3,8.8,2.8s12.5,3.9,17.6,5.1l9.1,2.3-2.9,6.1C229.3,575.7,227.7,578.6,227.2,578.8Zm570.4,438.4c11.4,32.3,14.4,42.1,15.1,49.5,1.2,12.2-2,14.5-20.2,14.7-9.4.1-10.4-.1-16.8-3.2-16.3-8-27.6-21.7-37.7-46-5.8-13.7-32.2-64.8-46.4-89.5-30.5-53-32.1-55.5-41.6-62.7a177,177,0,0,1-30.9-31.4c-6.5-8.6-17.1-26.6-20.6-34.9L597,810l2.7-1.1c10.1-3.9,28.5-6.6,45.9-6.8l11.1-.1,3.3,8.2c1.8,4.6,8.3,18.2,14.5,30.3s12,24.5,12.9,27.5,2.5,12.4,3.6,20.8c4,29.3,8.9,36.5,39.7,57.7A471.21,471.21,0,0,0,775.2,974l11.7,6.4,1.1,6.2C788.6,990.1,792.9,1003.8,797.6,1017.2ZM1063,937.8c-.5.2-6.6-2.2-13.6-5.2-18.5-8.1-37.9-13.6-33.7-9.6.4.5,5.3,2.3,10.8,4.1,9,2.8,27.8,10.5,31.4,12.8,1.9,1.2.4,3.1-5.5,7.2l-4.2,2.9-8.5-4c-6-2.7-11.3-6.3-18.2-12.2-10.7-9.2-12.5-10.4-12.5-8.8,0,1.4,11.2,12,18.4,17.4a66.21,66.21,0,0,0,10.9,6.4c3.1,1.3,5.7,2.8,5.7,3.3s-1.4,1.6-3,2.4c-3.8,1.9-4.3,1.8-26.3-6.9-9.2-3.6-21.3-7.9-27-9.6-17.4-5-34-9-34.5-8.5-1.4,1.4,3,3,21.4,8,17.2,4.7,48.2,15.7,56.3,20l2.6,1.3-6.5,3c-13.4,6-12.3,5.9-25.1,1.7-14-4.7-45.1-20.1-57.7-28.7-15.1-10.2-15.2-10.2-15.2-8.5s9.8,9.1,22.3,16.6a335.8,335.8,0,0,0,45.2,21.6c5.5,2,10.4,4,10.8,4.5,1.6,1.5-17.9,6.9-34.3,9.4-23.2,3.6-27.7,3.9-37.7,3.1-10.3-.9-8.9-1.7,6.2-3.4,10.4-1.2,32.2-6.4,33.9-8.1,2.3-2.3-1-2-12.6.8-18.4,4.6-26.6,5.6-45.3,5.6-18.2.1-31.2-1.4-59-6.5-37.5-7-55.3-13.7-72.1-27-6.6-5.2-8.5-7.5-3.6-4.3,8.3,5.4,12.4,7.6,18.7,9.8,22.3,7.9,66.9,16.6,100.2,19.7,6.8.6,21.8.9,33.5.7,20.2-.4,21.7-.6,29.1-3.2,4.2-1.5,7.7-3.2,7.7-3.7,0-1.4-2.9-1.1-9.5,1-13.7,4.3-29.5,4.8-61.5,2-36.6-3.2-90-14.4-105.3-22.1-2-1-8.3-5-13.9-8.8s-10.7-7-11.4-7c-1.2,0-8.4-8-8.4-9.4,0-.3,2-.6,4.5-.6,3.7,0,4.5.3,4.5,1.9,0,1.4,2.4,2.7,10.3,5.8A532.79,532.79,0,0,0,839,943.1c15.2,3.8,15.7,3.9,34.5,3.9,24.3.1,34.5,1.1,53,5.5,17.5,4.2,35.5,5.8,35.5,3.3,0-1.2-2-1.6-9.8-2.1-5.8-.4-17.3-2.4-27.8-4.8l-17.9-4.1-25-.2c-23.2-.2-25.8-.4-36-2.8a595.31,595.31,0,0,1-57.4-17.7c-14.3-5.3-17.5-7.1-12.5-7.1,7.3,0,28.1,2.5,67.4,8.2,32.2,4.6,46.3,6.2,58.2,6.5,15.9.5,22.8,0,22.8-1.7,0-.6-6.1-1-14.9-1-15.7,0-22.6-.8-76.6-8.5-33.5-4.9-49.6-6.5-64.6-6.5h-9.6l-8.6-11c-7.9-10-10.7-12.7-10.7-10.1,0,2.8,24.6,32.6,36.1,43.6,22.6,21.8,40.8,29.2,94.9,38.4,9.6,1.7,20.5,3.3,24.2,3.7,4.1.4,6.5,1.1,6.1,1.7s-4.8.7-12.2.3a267.39,267.39,0,0,1-99.6-26.1c-17.8-8.8-30.3-17.3-41.1-28S733,909.4,733,901.1c0-7-1-13.1-2.1-13.1-.4,0-1,3.9-1.1,8.7l-.3,8.8-3.4-8.5c-3.9-9.7-5.1-11.6-5.1-7.8,0,3.5,7.2,23.1,12.5,34.3,4.7,9.7,9.4,15.9,17.1,22.6,15.2,13.2,46.3,28.8,67.7,33.9,9.8,2.4,11.7,2.5,11.7.6,0-.9-1.7-1.6-4.7-2.1-11.6-1.7-33.2-10-49.5-19-12.9-7.2-20.9-12.8-27.1-19.2-5.9-6-7.7-8.7-12.3-17.6l-3.5-6.8,11.3,11.4c12.5,12.4,21.1,18.6,39,27.8,21.2,10.8,44.7,18.9,71.2,24.5,10.8,2.3,15.5,2.7,43.1,3.4,34.6.9,51.4,2,49.3,3-2.9,1.7-23.8,4.2-34.2,4.1-6.1,0-17.2-.7-24.6-1.5s-20.8-1.6-29.7-1.6c-17.2,0-31.9-2.1-52.3-7.5-21.7-5.7-74-36.7-92.6-55-11-10.8-12.9-15.5-16.4-40.5-1.1-7.4-2.2-15.1-2.6-17l-.7-3.5,6.1,5.2c7.4,6.1,14.5,9.7,25,12.4,9.6,2.5,28.2,3.7,42.7,2.8,6.1-.3,11.2-.5,11.4-.3.4.4-3.7,2.3-12.2,5.8-2.1.9-3.6,2-3.3,2.5s5.2-.6,11.2-2.6l10.6-3.6,6.1,1.7c3.3.9,16.4,5.7,29.1,10.5,32.1,12.3,43.8,15.5,73.6,20,31.7,4.8,40.2,5.5,65,5.5,20.7.1,26.8-.3,39.5-2.2,18.1-2.8,23.1-4,21.8-5.3-.6-.6-7.2,0-18.4,1.6-31.9,4.9-58.7,4.4-100.9-1.6-31.3-4.4-50.2-9.3-75.9-19.3-10.2-4-22.4-8.5-27.1-10.1s-8.9-3.1-9.3-3.5,2.9-1.3,7.5-2,17.5-2.7,28.8-4.5,21-3,21.5-2.5,5.7,1.5,11.6,2.3,20.2,3.9,32,6.7c44.1,10.5,41.3,10.1,65.5,10.7,26.6.7,50.5-.3,53.1-2.2,1.5-1.1-3.9-1.2-31.7-.8-38.9.6-37.5.8-79.7-9.2-15-3.6-30.6-7-34.8-7.6s-7.5-1.5-7.5-1.9c0-1.3,24.3-4,36.5-4,14,0,23.4,1.4,50.4,7.4,24.2,5.5,36.1,7.3,56.6,8.6s20.5,1.3,20.5-.5q0-1.5-3-1.5c-1.8,0-3.3-.6-3.6-1.5s-7.6-8.6-16.2-17.3c-20.6-20.7-31.2-27.7-53.3-34.7-9.2-2.9-34.4-8.5-38.4-8.5-5.1,0-2.2,1.9,5.3,3.5,28.7,6.1,42.5,10.5,55.5,17.9,10.7,6.1,18.4,12.6,32.1,27.1l11.7,12.5h-7.9c-15,0-16.1-.4-26.4-9.2-24.7-21.2-28.8-23.2-72.3-35.2-26.7-7.5-26.7-7.5-27.2-5.9-.5,1.3,3.2,2.6,28,9.3,22.8,6.2,37.5,11.2,44.4,15.2,6.6,3.7,21.7,15.4,26.3,20.3l3.5,3.7-5-.7c-2.7-.3-16.2-3.1-30-6-30-6.4-37.3-7.5-51.3-7.5-13.5,0-19.6.8-63.2,8-44.2,7.2-56.2,8.4-78.3,7.7-27.3-.8-38.3-4.7-51.8-18.2-6.6-6.7-8.9-9.5-7.6-9.5.2,0,7.1,1.4,15.3,3,29.4,6,47.3,8,70.5,8,23,0,53.5-2.9,85.7-8,11.6-1.9,27.4-6.9,28.8-9.1s-1-2-8.8,1c-19.1,7.2-78.6,13.9-114.3,12.8-21.2-.7-35.8-2.5-61.8-7.6l-19-3.8-1.8-3.4a26.71,26.71,0,0,1-1.9-4.3c0-1.8,17.3.5,44,5.8,48.3,9.7,68.6,10,104,1.5,21.7-5.2,33.5-8.8,32.4-9.9-.5-.5-10.4,1.4-23.4,4.6-31.7,7.8-38.8,8.7-60,8-18.6-.5-26.3-1.7-59.5-8.6-11-2.3-24-4.4-29-4.7s-9.7-.9-10.5-1.3c-1.7-.9-7.5-11.8-6.7-12.6.3-.3,6.1,1.2,12.9,3.4,47.9,15.6,90.9,19.9,139.3,13.9,25.2-3.1,26.5-3.4,26.5-4.7,0-1.5-5-1.2-27.1,1.6a297,297,0,0,1-111.8-6.2c-12.3-3-33.8-9.8-39.7-12.6-3.7-1.7-6.4-5.1-6.4-8,0-1.4,1.9-1,40.5,8.2,43.4,10.4,56.7,12.8,76.6,14.2,20.4,1.3,71.9.2,71.9-1.6,0-.8-8.7-1-33.7-.8-46.6.6-54.3-.4-114.3-14.8-15.7-3.8-31.4-7.4-35-8.1-7.3-1.3-9-2.3-9-5,0-1.7.8-1.9,6.8-1.9,3.7,0,12.1.6,18.7,1.4s16.9,1.7,22.9,2.1c9.8.5,12.8,1.2,28.5,6.5,28.8,9.6,44.7,12.2,83,13.6,16.2.5,19.3.4,18.9-.7s-5.8-1.6-24.9-2.5c-27.4-1.2-30.6-1.6-47.1-5-12.3-2.6-36.3-9.8-37.2-11.3-1.3-2,44.5-3.7,60.9-2.2,14,1.3,41.3,5.6,44.8,7.1,2.6,1.1-1,.9-39-2.5-29.9-2.7-34.3-2.9-34.3-1.6,0,1,2.7,1.4,38.9,5.1,15.5,1.5,28.5,3.1,28.8,3.4s-8.4.6-19.5.6c-17.3,0-20.2.2-20.2,1.5s4.5,1.5,34.3,1.5c18.8,0,39.8.5,46.6,1,10.1.8,12.8.7,14-.4,2.7-2.3,29.9-5,42.5-4.2,20.5,1.3,24.4,2.2,30.1,6.7,8.9,7.1,16,11.6,31.1,20,29.9,16.5,37.2,23.1,50.4,46.4,8.7,15.3,12.3,20.5,13.5,19.4.3-.4-3.8-8.5-9.2-17.9-14.8-26.1-22.5-33.6-48.8-48-18.8-10.3-35.6-21.3-34.4-22.5.3-.2,3.4,0,6.9.6,7.6,1.2,28.9,10.7,38.9,17.3,7.6,5.1,25.2,22.9,35.8,36.2,7.9,9.9,20.3,30.8,20.3,34.2,0,2.2,2.5,4.1,3.7,2.8.4-.4.1-2.3-.6-4.4-1.8-4.8-12.4-23.5-16.8-29.2-8-10.5-27.3-31.5-33.6-36.6S1000.1,827,998.4,827a24.78,24.78,0,0,1-5.3-2.8l-4.6-2.7,9.5-.5c6.6-.4,10.2-.1,11.7.7,27.6,15.6,35.5,21.6,45,33.7,7.5,9.6,8.4,11.7,13.7,31.1,4.5,16.4,5.8,19.6,6.9,17.8.5-.8-3.6-18.1-7.4-30.8-5.2-17.3-21.5-34.5-46.1-48.4-3.2-1.8-5.8-3.7-5.8-4.2,0-.7,2.1-.8,5.3-.5,17.6,1.8,15.6,1.1,26.3,9.2,5.4,4.2,11.6,9.2,13.7,11.2a83.23,83.23,0,0,1,15.3,21.8c2.4,5.5,8.4,33.4,8.4,39.4C1085,906.8,1066.8,936.4,1063,937.8ZM860.5,815.2c1.7,0,2.4.2,1.8.5a7.56,7.56,0,0,1-3,0C858.3,815.4,858.9,815.2,860.5,815.2ZM1090,889.5c-.7,2.5-1.6,4.7-2,5s-1.9-5.8-3.3-13.3c-4.5-23-12.5-36-30.7-50.5l-7.5-5.9,5.5.7a55.78,55.78,0,0,1,7.6,1.5c3.8,1.5,22.2,22.1,25.9,29.2,3,5.7,3.7,8.3,4.7,17.7C1091,882.6,1091,885.9,1090,889.5Zm4.4-9.8c-.4-.3-1-4.3-1.5-8.8-1.2-12.5-4.7-18.6-20.7-36.8l-5.4-6.1h5c3.3,0,5.6.6,6.6,1.6,4.7,4.7,16.4,22.7,20.2,31.2a99.67,99.67,0,0,1,4.4,10.7C1103,873,1095.2,880.5,1094.4,879.7Zm12.5-21c-.6,4-1.5,7.3-1.8,7.3s-2.5-3.9-4.8-8.8a152.81,152.81,0,0,0-11.3-18.4c-3.8-5.3-7-9.9-7-10.2,0-.8,4.1-1.3,11.3-1.5l6.8-.1,1.4,3.4c.8,1.9,2.6,7.4,4.1,12.3C1108,851,1108.1,851.9,1106.9,858.7Zm131-93.7c-7.5,11.4-25.3,29.7-35.4,36.4-8.5,5.6-9.7,5.8-8.4,1.3,3.4-11.7,4.1-19.9,2.9-33.6-1.5-17-1.4-17.3,10.9-34.9,8.5-12.1,13.5-17.7,15-17,.3.2,4.5,4.3,9.2,9.3s9.1,9.9,9.6,11,1.4,5.6,1.8,10l.7,8Zm33.8-127.1c-.6,24.5-3.2,45.1-8.3,65.6-3.4,13.6-12.1,38.5-13.4,38.5-.4,0-1.1-1.5-1.4-3.4-.5-2.4-3.2-6.3-9-12.8-4.6-5.1-9.3-10.1-10.4-11.2l-2.1-1.9,5-5.6c6.4-7.1,10.2-12.8,17.8-26.9,3.4-6.2,8.4-14.7,11.2-18.9s4.8-8.1,4.6-8.6a7.09,7.09,0,0,0-2.3-2.4c-1.9-1.2-2.4-.8-7.6,6.5-3,4.3-8.1,12.8-11.3,18.8-7.4,13.9-12,20.7-19.2,28.5l-5.8,6.2-1.2-16.9a171.79,171.79,0,0,0-3.8-28.5c-3.2-13.2-10.4-34.8-14.1-42.1-1.4-2.7-2.3-5.2-2.1-5.5s9.4-2,20.3-3.9,20.2-3.8,20.7-4.3a3.3,3.3,0,0,0,.2-3c-.9-2.9-3.8-2.8-26.8,1.2-17,2.8-21.4,3.2-38.2,3.2-10.4,0-20.7-.4-22.7-.8-3.6-.8-3.7-.8-7.3-11.8-6.2-18.5-20.7-45.2-28.8-52.7-2.3-2.2-2.5-2.2-4.6-.5l-2.3,1.9,7.4,10.5c8.4,12,13.1,20.6,18.2,33.7,9.3,23.4,11.4,46.3,7.7,84.2-4.7,48.5-4.7,50.3-.2,49.8,3-.3,2.5,3.1,6.7-43.3,2.1-22.5,2.5-32.5,2.2-45-.3-8.8-.8-16.7-1.2-17.5-.5-1.3,2.4-1.5,23-1.5,16.1,0,23,.3,21.9,1-4.8,2.9-4.8,2.6-1.4,10.5,10.3,24.3,15.9,48.1,15.9,68.1,0,18.1-1.4,22.1-12.8,38.2-8.7,12.2-9.8,16-8.6,30.1,1.3,14.7.9,20.8-1.9,33-1.4,5.9-2.3,11.4-2.1,12.1.4.8-2.3,2.3-7.9,4.3-15.2,5.5-32.6,8.2-53,8.2h-12.9l1.6-2.3c6.7-9.2,6.8-15.9.7-28.2-4.1-8.3-4.5-8.7-18.4-19.9-7.8-6.3-17.2-14.5-20.8-18.3-8.5-8.7-23.9-27.2-23.9-28.7,0-.6,4.8-3.5,10.8-6.5,18.6-9.2,55.2-32.1,55.2-34.4s-2.8-4.9-4.2-4.1c-.7.4-7.4,4.7-14.9,9.5-20,12.8-33.6,20.4-46.3,25.9-29.7,12.7-57.6,17.8-82.7,15-8.2-.9-11.4-.9-11.7-.1-.5,1.6-2.8,1.4-7-.8-5.6-2.8-11.4-3.8-38.7-7.1-81-9.5-94.5-10.3-128-7.5-34,2.8-43.1,2-60.5-5.6-9-4-12.3-5-15.2-4.6-4.6.6-12.4,4.6-26.9,13.7-23.5,14.7-30.8,17-54.6,17-16,0-28.2-1.6-48.7-6.4-12.1-2.9-19.5-3.3-25.2-1.2-2.2.7-8.2,4.1-13.4,7.5-14.8,9.6-17.8,10.5-35,10.5-8,.1-17.2-.1-20.5-.4-5.9-.5-6-.5-6.3,2.2-.5,4.4,2.8,5.1,23.3,5.2,21.9.1,24.6-.6,40-10.1,6.1-3.8,12.3-7.4,13.8-8.1,4.3-1.9,10.2-1.4,23.2,1.7,21.6,5.2,31.8,6.4,52.9,5.9,25.6-.6,26.8-1.1,59-20.7,6.6-4.1,13.9-8,16.2-8.8,4.2-1.4,4.3-1.4,15.6,3.5a111.54,111.54,0,0,0,17.9,6.1c8.8,1.5,24.6,1.4,46.4-.4,27.6-2.2,37.7-1.9,79.1,2.5,63.5,6.8,75.9,8.6,83.1,12,7.8,3.6,16.4,11.6,19.8,18.3,2.2,4.6,2.5,6.3,2.5,17v11.8l3.3-.3,3.2-.3.3-12.5c.3-12.1.2-12.6-2.7-18.5a46.88,46.88,0,0,0-6.6-9.7,25,25,0,0,1-3.5-4.1c0-.2,6-.2,13.3.1,19.4.6,32-1.4,59.5-9.3,3.4-1,6.3-1.6,6.5-1.4,18.5,23.7,28.5,34.2,46.7,48.9,13.3,10.7,14.8,12.3,17.8,18.3,4.4,9,4.5,16.4.3,20-2.5,2.1-4.4,2.6-12.7,3.2-17.7,1.3-39.3.3-51.9-2.5-2.2-.5-13.9-1.6-26-2.5-27.5-1.9-38-3-62.5-6.1-18.3-2.4-21.2-2.5-47-1.9-31.5.7-32,.7-71-7.6l-24.5-5.1-25-.2c-13.7,0-37.4.3-52.5.8-18.4.6-36.4.5-54.5-.3-40.6-1.7-61.9.3-85.5,8.2-10.4,3.5-29.8,7.6-56.5,11.9-12.9,2.1-17.1,2.3-55.5,2.3-44.5,0-48.2-.3-70.5-5.5a212.89,212.89,0,0,1-48-17.5c-14.8-7.2-35.1-19.3-34.1-20.2.2-.3,2.9.4,5.9,1.5,17.8,6.7,35.6,6.7,59.8.1l7.6-2.1,14.9,4.7c21.4,6.8,27.9,10.2,38.7,20.4,5.6,5.3,5.7,5.4,7.7,3.6a6.15,6.15,0,0,0,2-3c0-1.8-10.5-11.3-17.6-16-4.1-2.7-12-6.1-25.9-10.8-27.8-9.5-35.3-13.3-44.1-22.1-9.8-9.9-13.3-18.2-13.4-31.3s4-27.2,15.2-53l7-16.3,4.2-1c2.2-.6,5.1-1.5,6.4-2s7.9-.8,16-.4l13.7.6,10.35-2.6c-.64-2.25-1.21-4.54-1.7-6.85-6.9,1.52-10.27,1.65-18.15,1.65-36.2-.1-58.7-15-72.9-48.4-1.8-4.1-3.3-7.6-3.5-7.7-.9-1-5.6,1.9-5.6,3.4,0,1,2.3,6.5,5,12.2s4.9,10.6,4.7,10.8-9.4-4.4-20.3-10.2S303.9,587,303.2,587s-1.7,1-2.1,2.2c-1.2,2.9-1,3,17.4,13,8.3,4.5,19.1,10.5,24.2,13.5s10,5.3,11.1,5.3,2.9,1.2,4.3,2.6c3.4,3.6,15.6,11.7,21.2,14,2.6,1,4.7,2.2,4.7,2.5s-2.5,1.6-5.6,2.8a50.83,50.83,0,0,0-20.8,14.7c-2.4,2.9-9.2,14.7-15.1,26.3-9.9,19.3-11.2,21.3-15.1,23.9-4.8,2.9-5.1,3.8-3,6.8,1.4,1.9,1.5,1.9,5.1,0,6.1-3.3,9.7-8.4,19.8-28.3,5.3-10.5,11.4-21.3,13.5-24,3.9-4.8,11.8-11.1,12.8-10.1.3.3-2.6,8.2-6.5,17.4-8.6,20.7-11,29.8-11.8,43.4-.9,16.8,2.8,27.6,13.3,38.9,4.6,5,14.7,12.7,18.9,14.5,2.3,1-2.3,2.5-12.6,4.1-19.2,3.1-30.8,1.1-53.4-9.2-6.6-3-12.8-5.2-13.8-4.9-2.2.5-23.6-12.4-34.3-20.8-9.9-7.8-17.8-17.8-20.1-25.5a21.68,21.68,0,0,1-.6-11.6c.8-4.7.7-6.6-.3-8.7-.8-1.5-2.1-7.1-3.1-12.5l-1.6-9.8-7.6-8.1c-9.1-9.7-13.5-17.6-12.8-23.1.3-2.1,1.7-12.6,3.1-23.3,4.9-36.5,5.3-37.9,15.4-46.8,19.7-17.3,80.7-59.5,113.7-78.6,13.2-7.6,31.5-12.9,53.9-15.7,12.6-1.5,32.1-.7,48.1,2.2,10.2,1.8,14.4,2,28,1.5,36.6-1.3,48.3-4.8,66.1-19.5,7.8-6.5,11.1-8.5,16.3-10.2,6.5-2,22.2-3.8,20.9-2.4a55.63,55.63,0,0,1-8.1,3.9c-13.9,6.1-27.1,15.4-43.2,30.4l-7.9,7.4-2.1-2.6c-2.4-3-3.3-3.2-6-1.2-1.7,1.3-1.6,1.7,2.7,9.3,5.5,9.5,8.8,18.9,8.8,25.4,0,2.6-1.1,9.5-2.5,15.3-3.3,13.8-3.3,13.8.7,13.4,3.3-.3,3.3-.3,6-10.8,4.1-16,3.5-26.9-2.4-38.4l-2-4,6.8-6.3c20.8-19.1,35.4-28.9,51.2-34.2,10.7-3.6,25.5-7.1,30.4-7.1,8.3,0,32.8-4,53.3-8.6,30-6.8,39.7-8.4,54.5-9.1s26.3.5,39.4,3.8c9.3,2.4,13.6,4.4,36.3,17.7l1.3.76q2.29-3.92,4.52-7.88c-8.86-5.07-17-10.25-17-11.29,0-.6,4.3-4.6,9.5-8.8l.9-.75q1.19-5.89,2.48-11.75c-2.53,2.28-4.93,4.36-7.18,6.2-14.4,12-11.7,11.3-27.8,7.1-12.5-3.2-15.7-3.6-30.9-4.1-20.7-.7-27.2.1-59.8,7.3-29.7,6.6-33.7,7.3-33.7,6.5,0-.3,2.9-2.6,6.3-5.1,8.8-6.4,20.2-17.5,25.3-24.6A75.13,75.13,0,0,0,690,392.8a30,30,0,0,1-15,6.1c-1.58,1.89-3.35,3.84-5.34,5.88a119.8,119.8,0,0,1-30.3,22.9c-12.3,6.6-16.4,7.3-37.3,6.6-11.7-.4-19.3-.2-22.9.6-3,.6-5.6,1-5.8.8s.8-4.8,2.2-10.2c4.9-18.8,3.3-26-8.8-41.4-1.89-2.35-3.34-4.3-4.53-6.12q-5.11.48-10.23.74c6.51,6.95,12.67,14,14.56,16.68,5.8,8.5,6,16.1.4,34.4-1,3.4-1.6,6.8-1.3,7.5s-.5,1.8-1.8,2.4-7,4.9-12.8,9.7c-14.4,11.9-21.8,14.4-50,16.7-15.5,1.2-22.4.9-42-2.2-14.5-2.2-37.7-2.5-51.2-.5-4.9.7-8.8,1-8.8.7a7.16,7.16,0,0,1,1.6-2.2c1.5-1.7,1.5-2.5-.5-11.1a535.56,535.56,0,0,1-12.8-76.33c.05,1.7.09,3.39.1,5.09,0,4.79-5.1,5.94-8,3.72,2.7,24.55,8.1,55.51,12.43,69.72,1.6,5.2,3.1,10.1,3.3,10.9.3,1-2.6,2.3-10.8,4.6-12.9,3.7-26.9,10.3-42.9,20.3l-11.1,7L318.7,491c-11.9-4.8-13.7-6-30.7-20.6-9.8-8.4-12.3-11-22.5-23.3-10.3-12.6-22.3-21.9-51.7-40-14.2-8.7-22.1-14.6-30.9-22.9l-6.7-6.3-2.7,2.4c-3.5,3-2.9,4.2,6.4,13,6.7,6.3,16.1,12.8,47.3,32.7,13.7,8.7,24.9,18.8,41.1,37.3a266.6,266.6,0,0,0,19.5,18.4c10,8.3,14.8,11.6,22.7,15.3l9.9,4.7-6.4,4.6c-3.6,2.5-13.5,9.4-22,15.3s-21.6,15.2-29,20.8c-20.7,15.6-20.7,15.6-24.3,15-17.3-3.1-56-15.9-72.4-23.9-10.7-5.3-20-13.7-24.8-22.5-2.6-4.8-3-6.4-2.9-13,.1-6.3.9-9.6,4.8-20.4,2.5-7.1,5.3-15.7,6-19,5.2-22.1,1.7-46-11.1-76.1-4.5-10.5-4.8-10.8-8.3-9a13.43,13.43,0,0,0-3.5,2.4c-.3.6,1.4,5.7,3.9,11.4,6.7,15.7,9.9,27.6,11.6,43.3,1.4,13.2,0,21.8-7.1,43.4-5.8,17.4-6.1,18.9-5.7,26a30,30,0,0,0,3.8,14.3c1.8,3.7,3.1,6.9,2.9,7.1-1,.9-25-4.8-29.7-7-11.3-5.5-34.6-31.4-42.6-47.3-6.2-12.1-7.1-16.7-7.1-35.6.1-24,.2-24.4,20-44,9.2-9.2,16-16.8,17.5-19.6l2.3-4.6-1.8-9.4c-2.6-13.9-2.8-14.3-7.1-13.6a25.92,25.92,0,0,0-4.1,1c-.2.2.4,4.7,1.3,9.9s1.4,10.7,1,12.1c-.9,3.8-12.3,15.7-15,15.7-3.8,0-19.7-10.2-26.8-17.1-4.8-4.7-7.7-8.6-9.9-13.3-2.9-6.1-3.1-7.5-3.1-16.9.1-6.4.6-11.8,1.6-14.5,4.2-11.8,19.3-36.7,29.5-48.7,10.1-11.8,16.2-15,35.9-19,12.4-2.6,29.9-5.1,30.6-4.4s-3.8,19.2-6.4,26.9a67.3,67.3,0,0,1-6.2,12.7l-4.2,6.6,2.5,1.9,2.4,2,2.7-3.2c4.7-5.7,8.6-14.2,11.8-26,1.7-6.3,4.5-15.7,6.2-20.8,3.8-11.8,18.9-42.3,26-52.4,12-17.3,34.8-40.3,49.7-50.3,12-7.9,14.8-8.8,30.6-9.2l14-.5,6.89,3.14c.72-.61,1.44-1.23,2.16-1.83,4.59-3.84,10.85,1.67,7.74,6.25,1.49.62,2.79,1.11,3.95,1.49,7.16-3.75,14.38-7.41,21.39-11.37.47-1.58.32-2.9-.73-3.58-2.7-1.7-4.7-.9-6.8,2.6a12.78,12.78,0,0,1-5.6,5c-3.1,1.4-3.9,1.3-8.7-.5-8.7-3.3-8.7-3.2-4.5-8.3,9.9-12.1,19.1-20.3,28.2-24.9a136.15,136.15,0,0,1,35.2-12.4c7.9-1.5,10-1.5,24.2,0,10.2,1,32.1,1.7,63.4,2.1,61.6.8,65.1,1.3,84.5,12.1l.88.49q5.15-2.61,10.4-5A3.48,3.48,0,0,1,519,96c0-1,1.8-7.3,4-14.1,3.7-11.4,4.5-12.9,10-19.2a102.65,102.65,0,0,1,8.9-9.2c4-3.5,15.9-9.6,28.9-15,6.1-2.6,11.4-5,11.6-5.4.8-1.3-1.4-5.1-2.9-5.1-2.4,0-23,8.6-30.5,12.7a110.13,110.13,0,0,0-12.9,8.5c-4.4,3.5-6.6,4.7-7.4,3.9-1.2-1.2-.2-2.9,8.2-13.3,6.8-8.5,12.4-12.5,22.6-16.3a63.64,63.64,0,0,1,38.9-1.9c12.2,3.2,23.3,9.9,33.8,20.7a49.76,49.76,0,0,1,9.38,12.8c2.65-.19,5.3,1.39,5,4.78-.11,1.38-.26,2.76-.42,4.13.83,1.66,1.73,3.48,2.72,5.49,8.4,16.9,10.7,20.8,13.8,23.1,1.42,1,2.83,2.07,3.76,2.77,3.22-.12,6.45-.17,9.7-.17a4.55,4.55,0,0,1,4.59,3.4c3,.3,7.8.68,11.75,1,6.62.48,10.1.77,10.73,1.64l.4-.1a5.17,5.17,0,0,1,6.13,3.78l5.44-3,5.4,1.1c7.8,1.6,17.3,6.8,29.6,16l10.8,8.1-.06.11a5,5,0,0,1,5.93,2.14,4.91,4.91,0,0,1,.61,2.14c1-1.26,1.7-1.82,2-1.6.5.5,7.2-.6,15-2.5,32.8-7.8,40.6-8.8,68-8.8,24.1,0,25.4.1,35,2.7,12.1,3.3,21.6,7.8,42.3,19.8,22,12.9,27.8,15.5,40.7,17.9,15,2.7,25.8,5.7,33,9,3.3,1.6,9.1,4.2,13,6,22.3,10.1,45.9,30.5,75,65,7.6,9.1,18.2,21.4,23.4,27.5s12.6,15.3,16.4,20.5c7.7,10.5,16.4,20,18.4,20,.7,0,2.2-1.5,3.3-3.2l2-3.3-4.9-5a178,178,0,0,1-11.8-14.5c-6.5-8.9-23.6-29.3-49.6-59.4-22.9-26.4-46.7-45.9-68.9-56.7l-4.8-2.3v-6.3a47.24,47.24,0,0,0-2.2-13c-1.9-5.9-3.2-7.8-9.7-14.4a126,126,0,0,0-19.1-15.1c-23.2-15-41.7-23.6-66.5-30.9-18-5.3-33.6-11.2-60.5-22.8-10.3-4.5-17.8-7.1-20-7.1-11.9,0-38.9,14.8-44.5,24.4-1.3,2.3-3.7,9.5-5.4,16.1s-4.1,14-5.4,16.5l-2.2,4.5-9,.5c-8.1.5-9.3.3-12.1-1.7-26.1-18.4-29.7-19.7-62.3-22.8-8.4-.8-15.6-1.7-15.9-1.9-1.9-2,15.2-19,23.5-23.4,6.6-3.5,18-6.7,34.7-9.8,9.6-1.8,12.2-3.2,9.8-5.6-1.2-1.2-5.8-.5-25.2,3.8s-30.8,11.3-43.8,26.8c-5.9,7-6.5,7.4-8.7,6.4-1.4-.6-3.8-3.2-5.4-5.7-3.2-5-8.1-15-8.1-16.6,0-.6,2.8-2.6,6.2-4.5s11.2-8.3,17.3-14.1c9.3-8.8,12.3-11,18-13.3,3.8-1.5,8.9-3,11.4-3.2s20.6-.1,40.1.5c27.5.8,38.1,1.5,47.3,3,21.1,3.7,42,9.8,58.2,17.1,3.9,1.7,14.4,5,23.5,7.2,30.3,7.3,51.8,14.7,76.5,26.1,40.6,18.7,69.4,41.6,91.5,72.7a187.61,187.61,0,0,0,13,15.5c12.2,12.8,18.3,22.3,20.5,32,1.1,5,1.2,5,11.6,11.3,40.4,24.5,67.4,58.7,74.8,94.9,1.1,5.4,2.5,14.5,3.1,20.2s1.5,11,2.1,11.7a42.45,42.45,0,0,0,6.7,4.5,88.77,88.77,0,0,1,10.1,6.8c4.5,3.7,14.5,16,19.8,24.6,7.2,11.4,17.1,34.4,20.3,47.3.6,2.3,3.1,6.7,5.6,9.7,14,17.3,22.8,39.8,29.4,75,3.5,19.1,7,55.5,7,73.5v8.5l-2.2-3.5c-1.1-1.9-5.1-10-8.7-18l-6.6-14.5,1.7-13c1.9-14.8,2.3-42.8.7-52.5-1.7-10.6-3.9-16.9-7.2-20.7-5-5.7-19.9-18.4-21.1-18-.6.2-4.3-4.5-8.3-10.5-7.6-11.4-17.6-24.6-43.3-56.8-31.8-39.9-42.2-54.6-46.6-66.2-11.4-30.2-23.4-48-41.6-61.6-21.9-16.5-55.7-24.6-82.6-19.8-8.4,1.4-7.9,1.8-8.4-7.1-.4-5.3-1-7.1-4.4-12-8.4-12.3-34.4-35.6-76.8-68.6-14.1-11-15.1-11.6-16.8-10a5.24,5.24,0,0,0-1.8,2.9c0,.6,9.8,9,21.8,18.5,44.4,35.5,62.5,51.9,68.5,62.1q5.61,9.69-.59,23.41a4.51,4.51,0,0,1,2.62,4.38v4.14l.65.23,4.72-7.86,6.4-1.9c5-1.4,9.8-1.9,21.4-1.9,13.3,0,16.1.3,25,2.7,53.8,14.7,75.7,49.8,92,147.6,4.3,26.2,6.3,34.5,12.6,52.3,5.5,15.7,5.8,18.7,3,32.4-2.8,13.4-8.3,23.3-19.6,35.1-10.4,11-17.9,17.27-33.85,28.3a6,6,0,0,1,.28,5.17v0c.54.67,1.1,1.34,1.68,2,15.07-10.18,25.66-18.86,35.51-29,16.1-16.6,21.9-28.2,24.3-48.6l1.3-10.8-4.3-12.2c-7.1-19.7-9.2-28-12.9-50.2-1.9-11.6-4.7-26.8-6.1-33.8s-2.4-13.2-2.2-13.7,9.1,10.1,19.8,23.7c47.4,60,53.3,67.9,58.7,78.1,3,5.7,3.3,7.2,3.3,14.5,0,11.1-2.3,24.2-6.4,37.5-6.7,21.1-9.2,41-5.7,44.5a4.21,4.21,0,0,0,3.3.4c2.3-.6,2.4-1,2.6-9.9.1-9.3,2.2-19.5,8.6-40.3,2.4-8.1,4.6-22.3,4.6-30.5,0-8,1-8,9.8.6s9.5,10,11.4,24.4c1.5,11.7.4,40.5-2.2,57s-2.7,28.1-.6,37.9c2,9,2,9.1,5.7,9.1,3.4,0,3.4-.3,1.5-9.7-2.2-10.7-2.8-16.3-1.8-16.3,1.2,0,13.5,26.1,17.4,36.9l3.1,8.3ZM788.4,113.1c.9-1.7,3.2-8.9,5.1-16.1,4.2-15.8,5.4-18.2,10.8-22.1C813.8,68,830.7,60,836,60c1.4,0,9.5,3,18,6.6,29.3,12.4,45.5,18.5,60.8,23C933,94.8,943.4,99,959,107.2c16.5,8.6,30.4,18.1,38.6,26.3,5.9,5.7,7.5,8.1,8.8,12.5,1.5,4.9,2.2,13,1.2,13-.3,0-4.4-1.3-9.3-2.9s-15-4.1-22.6-5.6c-16.5-3.1-19.4-4.3-41.3-17.2-21.1-12.5-26.8-15.4-37-18.6-14.9-4.7-24.4-6-44.4-6-19.4,0-32.4,1.4-53.8,5.8-6.4,1.3-11.8,2.2-12,2S787.6,114.8,788.4,113.1Z" transform="translate(-0.22 -0.2)"/><path d="M308.3,721.5c-.3.9-.4,1.7-.2,1.9s6.5,4.5,13.9,9.6,18.2,12.9,23.9,17.2,10.9,7.7,11.5,7.5c2.9-1,.8-3.8-7.9-10.7-10.6-8.3-37.9-27-39.5-27C309.4,720,308.7,720.7,308.3,721.5Z" transform="translate(-0.22 -0.2)"/><path d="M700.7,878.7c-.3.5-.2,5.8.2,11.8.6,9.5,1.2,11.9,4,17.5,6.2,12.6,9.1,12.4,3.3-.2-3.4-7.3-4-9.8-4.6-18.4C702.9,880.2,702,876.6,700.7,878.7Z" transform="translate(-0.22 -0.2)"/><path d="M841.6,878.7c-1.3,1.4-.1,2.3,11.2,8.1,25.4,13,34.4,15.1,72.2,16.2,65.4,2.1,77.8,2.9,89,5.4a119,119,0,0,1,14.4,4c4.5,1.9,6.6,2,6.6.5s-5.7-3.6-18.4-7c-12-3.1-11.6-3.1-93.6-5.8-24.4-.9-28.6-1.3-37-3.5-12.2-3.3-17.5-5.3-31.9-12.6C847.6,880.8,842,878.4,841.6,878.7Z" transform="translate(-0.22 -0.2)"/><path d="M823,882.8c0,.4,12.5,7,27.8,14.5,25.3,12.5,28.5,13.8,37.2,15.4,11.1,1.9,43.8,2.3,87.8.9,23.1-.8,27.2-1.1,27.2-2.4s-3.2-1.4-26.2-.6c-38.3,1.3-78.4.9-88.8-1-7.3-1.3-12.1-3.3-35-14.6C828.4,882.9,823,880.7,823,882.8Z" transform="translate(-0.22 -0.2)"/><path d="M711,893.2c.1,15.8,5.3,26.4,21.1,42.8,6.7,7,7.8,4.9,1.2-2.6-14.1-16.2-18.1-23.4-18.9-34.1-.7-9.9-1.4-13.3-2.4-13.3C711.4,886,711,889.3,711,893.2Z" transform="translate(-0.22 -0.2)"/><path class="cls-1" d="M998.3,156.1" transform="translate(-0.22 -0.2)"/></svg>